<?xml version="1.0" standalone="no"?>
<!DOCTYPE svg PUBLIC "-//W3C//DTD SVG 20010904//EN"
 "http://www.w3.org/TR/2001/REC-SVG-20010904/DTD/svg10.dtd">
<svg version="1.0" xmlns="http://www.w3.org/2000/svg"
 width="178.000000pt" height="197.000000pt" viewBox="0 0 178.000000 197.000000"
 preserveAspectRatio="xMidYMid meet">
<metadata>
Created by potrace 1.10, written by Peter Selinger 2001-2011
</metadata>
<g transform="translate(0.000000,197.000000) scale(0.100000,-0.100000)"
fill="#000000" stroke="none">
<path d="M612 1908 l-162 -60 54 -102 c30 -55 58 -101 63 -101 28 0 263 92
263 103 0 12 -49 215 -53 219 -1 1 -75 -26 -165 -59z m159 -70 c9 -36 14 -70
10 -75 -10 -15 -189 -76 -201 -68 -17 10 -61 105 -58 123 3 18 180 92 212 89
16 -2 23 -16 37 -69z"/>
<path d="M830 1694 c-63 -24 -169 -63 -235 -85 -66 -23 -123 -45 -126 -48 -4
-3 -3 -16 1 -27 8 -21 11 -21 152 30 79 29 186 68 238 86 52 18 98 36 102 39
8 7 -1 52 -11 50 -3 -1 -58 -21 -121 -45z"/>
<path d="M945 1646 c11 -8 24 -16 28 -16 35 -1 126 -37 169 -67 72 -50 113
-97 149 -169 39 -81 52 -160 46 -270 -7 -119 -37 -225 -99 -351 -58 -116 -60
-157 -4 -65 157 259 173 580 38 776 -55 81 -185 155 -297 171 -47 7 -49 6 -30
-9z"/>
<path d="M512 1487 c-26 -28 -66 -109 -83 -167 -18 -63 -16 -250 4 -332 24
-97 71 -214 114 -282 55 -88 52 -51 -6 66 -74 151 -96 244 -96 398 1 133 9
167 71 283 29 54 28 68 -4 34z"/>
<path d="M1036 1473 c-12 -12 -5 -23 25 -38 36 -19 68 -13 50 9 -14 17 -67 37
-75 29z"/>
<path d="M1137 1393 c-27 -26 27 -86 72 -81 38 4 33 37 -8 65 -35 24 -53 28
-64 16z m57 -29 c19 -7 21 -34 3 -34 -14 0 -37 20 -37 32 0 10 13 10 34 2z"/>
<path d="M885 1063 c-32 -17 -91 -63 -81 -63 4 0 0 -13 -9 -30 -18 -35 -20
-119 -2 -157 18 -42 75 -90 123 -103 121 -34 239 54 238 179 0 115 -78 192
-191 191 -26 -1 -61 -8 -78 -17z m151 -22 c119 -54 126 -227 12 -291 -32 -18
-51 -21 -94 -18 -67 6 -101 29 -132 89 -43 81 -10 178 73 219 50 25 88 25 141
1z"/>
<path d="M967 923 c-4 -3 3 -17 15 -30 23 -24 11 -31 -23 -13 -16 9 -19 7 -19
-8 0 -30 25 -54 55 -54 52 0 75 67 33 96 -24 17 -50 21 -61 9z"/>
<path d="M285 719 c-21 -33 57 -138 104 -140 14 0 35 -4 45 -8 19 -7 19 -8 -2
-13 -12 -4 -20 -2 -17 2 3 5 -52 10 -122 11 -71 1 -150 2 -176 3 -81 2 -83
-38 -5 -95 46 -32 135 -62 170 -57 18 3 11 8 -27 21 -27 10 -81 34 -120 53
l-70 35 135 -6 c108 -6 150 -4 210 10 41 9 86 19 100 22 l25 6 -20 -23 c-11
-12 -54 -44 -95 -71 -85 -57 -194 -94 -314 -108 -95 -11 -117 -27 -92 -65 32
-49 70 -61 196 -61 96 0 128 4 190 25 93 31 64 39 -47 14 -115 -26 -215 -23
-282 6 -62 27 -56 33 51 44 142 14 291 84 402 189 52 49 57 57 54 92 -3 36 -4
37 -73 60 -38 12 -90 32 -115 44 -49 22 -95 27 -105 10z m95 -45 c22 -9 38
-19 36 -23 -2 -3 6 -7 17 -7 12 -1 45 -8 72 -17 41 -12 46 -16 31 -23 -13 -5
-21 -3 -24 4 -4 14 -32 16 -32 3 0 -12 45 -22 64 -15 17 7 19 4 10 -20 -5 -14
-9 -14 -34 -1 -33 17 -54 20 -45 5 3 -5 -15 -3 -40 5 -43 12 -90 55 -90 80 0
5 -7 13 -15 17 -32 14 11 7 50 -8z"/>
<path d="M1390 709 c-25 -12 -76 -32 -114 -44 -103 -34 -107 -77 -13 -161 110
-99 259 -167 395 -180 98 -10 107 -18 47 -44 -57 -25 -172 -29 -260 -10 -27 6
-70 13 -95 15 l-45 5 30 -14 c100 -49 302 -60 379 -21 52 26 71 55 53 79 -9
13 -35 20 -95 27 -45 5 -115 20 -157 33 -80 26 -204 97 -245 142 l-25 27 30
-8 c136 -33 174 -37 305 -31 l135 6 -65 -32 c-36 -18 -90 -42 -120 -53 -70
-25 -35 -34 43 -11 89 26 167 93 147 126 -10 16 -13 16 -247 9 -82 -2 -139 0
-136 5 4 5 -7 6 -23 2 -21 -5 -25 -4 -14 4 24 16 -7 12 -41 -5 -27 -14 -30
-14 -36 1 -3 9 0 20 8 25 8 5 10 9 4 10 -15 1 86 31 112 33 11 0 19 4 17 8 -6
9 85 43 93 34 3 -3 -1 -6 -10 -6 -10 0 -14 -6 -11 -13 3 -8 -2 -20 -11 -27 -8
-7 -15 -18 -15 -25 0 -8 -12 -18 -27 -23 l-28 -10 31 -1 c25 -1 39 7 64 35 84
97 53 145 -60 93z"/>
<path d="M1264 607 c-8 -9 0 -12 33 -13 42 -1 42 -1 17 13 -32 16 -36 16 -50
0z"/>
<path d="M656 499 c-30 -61 -144 -198 -211 -252 -71 -58 -130 -89 -209 -112
-71 -21 -101 -47 -86 -75 13 -24 61 -50 92 -50 18 1 14 6 -22 25 -30 16 -40
25 -30 29 8 3 47 16 87 29 123 42 232 133 339 283 46 65 80 142 67 155 -5 4
-17 -10 -27 -32z"/>
<path d="M1090 525 c0 -47 78 -171 172 -270 77 -82 164 -140 253 -167 39 -11
74 -23 79 -26 5 -3 -11 -15 -35 -28 -35 -18 -39 -23 -21 -24 31 0 79 26 92 50
15 28 -15 54 -86 75 -87 25 -146 58 -225 126 -71 61 -174 190 -200 248 -15 33
-29 41 -29 16z"/>
<path d="M853 319 c-68 -12 -179 -80 -231 -141 -13 -16 -30 -28 -38 -28 -8 0
-14 -4 -14 -9 0 -11 -108 -68 -195 -102 -60 -24 -65 -28 -38 -28 75 -2 220 73
330 171 77 68 171 118 223 118 53 0 147 -50 225 -120 114 -101 262 -176 332
-168 23 2 15 7 -42 27 -38 14 -97 40 -131 59 -58 33 -75 45 -149 110 -103 90
-189 125 -272 111z"/>
</g>
</svg>
